<svg xmlns="http://www.w3.org/2000/svg" width="48" height="48" fill="none" viewBox="0 0 48 48">
  <g clip-path="url(#a)">
    <path fill="#fff" fill-rule="evenodd" d="M24.001 1A24.086 24.086 0 0 0 8.454 6.693 23.835 23.835 0 0 0 .32 21.044a23.754 23.754 0 0 0 3.152 16.172 23.98 23.98 0 0 0 12.939 10.29c1.192.221 1.64-.518 1.64-1.146 0-.628-.023-2.45-.03-4.442-6.678 1.443-8.088-2.817-8.088-2.817-1.09-2.766-2.663-3.493-2.663-3.493-2.178-1.478.163-1.45.163-1.45 2.412.17 3.68 2.461 3.68 2.461 2.138 3.648 5.616 2.593 6.983 1.976.214-1.545.838-2.596 1.526-3.193-5.334-.6-10.937-2.647-10.937-11.791a9.213 9.213 0 0 1 2.472-6.406c-.247-.6-1.07-3.026.234-6.322 0 0 2.015-.64 6.601 2.446a22.904 22.904 0 0 1 12.018 0c4.582-3.086 6.593-2.446 6.593-2.446 1.308 3.288.485 5.714.239 6.322a9.193 9.193 0 0 1 2.476 6.414c0 9.163-5.616 11.183-10.957 11.772.858.742 1.625 2.193 1.625 4.421 0 3.193-.027 5.762-.027 6.548 0 .636.433 1.38 1.649 1.146a23.98 23.98 0 0 0 12.939-10.291 23.754 23.754 0 0 0 3.15-16.175A23.834 23.834 0 0 0 39.56 6.69 24.086 24.086 0 0 0 24.01 1h-.008Z" clip-rule="evenodd"/>
    <path fill="#fff" d="M9.09 35.264c-.053.119-.243.154-.398.071-.155-.083-.27-.237-.215-.36.056-.122.243-.154.398-.07.155.082.274.24.214.359Zm.973 1.079a.4.4 0 0 1-.493-.11c-.155-.167-.187-.396-.068-.499.12-.102.334-.055.489.11.155.167.19.396.072.499Zm.945 1.371c-.147.103-.398 0-.537-.206a.396.396 0 0 1-.09-.439.396.396 0 0 1 .09-.13c.147-.098.398 0 .537.202s.143.47 0 .573Zm1.283 1.328c-.13.146-.397.106-.616-.091-.218-.198-.27-.466-.139-.609.131-.142.398-.102.624.091.227.194.27.467.131.609Zm1.801.774c-.06.186-.33.269-.6.19-.27-.08-.449-.3-.397-.49.051-.19.326-.277.6-.19.274.087.449.297.397.49Zm1.965.134c0 .194-.223.36-.509.364-.286.004-.52-.154-.52-.348 0-.193.222-.36.508-.363.286-.004.52.15.52.348Zm1.828-.304c.035.194-.163.395-.45.443-.285.047-.536-.067-.572-.257-.035-.19.171-.395.45-.447.278-.05.536.068.572.261Z"/>
  </g>
  <defs>
    <clipPath id="a">
      <path fill="#fff" d="M0 0h48v48H0z"/>
    </clipPath>
  </defs>
</svg>
