<svg xmlns="http://www.w3.org/2000/svg" width="48" height="48" fill="none" viewBox="0 0 48 48">
  <g clip-path="url(#a)">
    <path fill="#fff" d="M15.1 43.5c18.11 0 28.017-15.006 28.017-28.016 0-.422-.01-.853-.029-1.275A20 20 0 0 0 48 9.11a19.44 19.44 0 0 1-5.652 1.547 9.9 9.9 0 0 0 4.33-5.446 19.794 19.794 0 0 1-6.251 2.39 9.86 9.86 0 0 0-16.788 8.979A27.97 27.97 0 0 1 3.346 6.299 9.859 9.859 0 0 0 6.393 19.44a9.86 9.86 0 0 1-4.462-1.228v.122a9.844 9.844 0 0 0 7.901 9.656 9.788 9.788 0 0 1-4.442.169 9.867 9.867 0 0 0 9.195 6.844A19.75 19.75 0 0 1 0 39.077 27.938 27.938 0 0 0 15.1 43.5Z"/>
  </g>
  <defs>
    <clipPath id="a">
      <path fill="#fff" d="M0 0h48v48H0z"/>
    </clipPath>
  </defs>
</svg>
