<svg width="48" height="48" viewBox="0 0 48 48" fill="none" xmlns="http://www.w3.org/2000/svg">
<path fill-rule="evenodd" clip-rule="evenodd" d="M24 48C37.2548 48 48 37.2548 48 24C48 10.7452 37.2548 0 24 0C10.7452 0 0 10.7452 0 24C0 37.2548 10.7452 48 24 48ZM17.0251 33.2069C22.0093 33.2069 26.0499 29.1312 26.0499 24.1036C26.0499 19.076 22.0096 15 17.0251 15C12.0407 15 8 19.0769 8 24.1036C8 29.1303 12.041 33.2069 17.0251 33.2069ZM35.9509 24.1037C35.9509 28.8361 33.9306 32.674 31.4383 32.674C28.9461 32.674 26.9258 28.8361 26.9258 24.1037C26.9258 19.3712 28.9458 15.5333 31.438 15.5333C33.9303 15.5333 35.9506 19.37 35.9506 24.1037H35.9509ZM38.4129 31.7812C39.2896 31.7812 40 28.3427 40 24.1036C40 19.8633 39.2893 16.4259 38.4129 16.4259C37.5366 16.4259 36.8262 19.8636 36.8262 24.1036C36.8262 28.3436 37.5363 31.7812 38.4129 31.7812Z" fill="black"/>
</svg>
